<svg width="31" height="31" viewBox="0 0 31 31" fill="none" xmlns="http://www.w3.org/2000/svg">
<path d="M31 21.9945C31 27.6365 27.6365 31 21.9945 31H20.15C19.2975 31 18.6 30.3025 18.6 29.45V20.5065C18.6 20.088 18.941 19.7315 19.3595 19.7315L22.0875 19.685C22.3045 19.6695 22.4905 19.5145 22.537 19.2975L23.0795 16.337C23.126 16.058 22.909 15.7945 22.6145 15.7945L19.313 15.841C18.879 15.841 18.538 15.5 18.5225 15.0815L18.4605 11.284C18.4605 11.036 18.662 10.819 18.9255 10.819L22.6455 10.757C22.909 10.757 23.1105 10.5555 23.1105 10.292L23.0485 6.57198C23.0485 6.30848 22.847 6.107 22.5835 6.107L18.3985 6.16902C15.8255 6.21552 13.7795 8.3235 13.826 10.8965L13.9035 15.159C13.919 15.593 13.578 15.934 13.144 15.9495L11.284 15.9805C11.0205 15.9805 10.819 16.182 10.819 16.4455L10.8655 19.3905C10.8655 19.654 11.067 19.8555 11.3305 19.8555L13.1905 19.8245C13.6245 19.8245 13.9655 20.1655 13.981 20.584L14.1205 29.419C14.136 30.287 13.4385 31 12.5705 31H9.0055C3.3635 31 0 27.6365 0 21.979V9.0055C0 3.3635 3.3635 0 9.0055 0H21.9945C27.6365 0 31 3.3635 31 9.0055V21.9945Z" fill="white"/>
</svg>
